# xmcd
#
# Track frame offsets: 
#        150
#        19710
#        39152
#        58382
#        78695
#        100930
#        118651
#        139427
#        159607
#        180784
#        196381
#        220239
#        239249
#        259060
#        279268
#        297010
#
# Disc length: 4211 seconds
#
# Revision: 0
# Processed by: cddbd v1.5.1PL2 Copyright (c) Steve Scherf et al.
# Submitted via: ExactAudioCopy v0.95a5
#
DISCID=ec107110
DTITLE=谭咏麟 - 谭咏麟雷霆精选系列VOL.3
DYEAR=1900
DGENRE=Pop
TTITLE0=情凭谁来定错对
TTITLE1=情缘巴士站
TTITLE2=爱多一次痛多一次
TTITLE3=再见亦是泪
TTITLE4=讲不出再见
TTITLE5=还我真情
TTITLE6=一首歌一个故事
TTITLE7=还是你懂得爱我
TTITLE8=梦幻的笑容
TTITLE9=我的生命我的爱
TTITLE10=笑看人生
TTITLE11=情中情戏中戏
TTITLE12=一生中最爱
TTITLE13=天地初开情已在
TTITLE14=令世界变得更暖
TTITLE15=离不开的心
EXTD=
EXTT0=
EXTT1=
EXTT2=
EXTT3=
EXTT4=
EXTT5=
EXTT6=
EXTT7=
EXTT8=
EXTT9=
EXTT10=
EXTT11=
EXTT12=
EXTT13=
EXTT14=
EXTT15=
PLAYORDER=
